<?xml version="1.0" encoding="utf-8"?>
<!-- Generator: Adobe Illustrator 19.0.0, SVG Export Plug-In . SVG Version: 6.00 Build 0)  -->
<svg version="1.1" id="图层_1" xmlns="http://www.w3.org/2000/svg" xmlns:xlink="http://www.w3.org/1999/xlink" x="0px" y="0px"
	 viewBox="0 0 16 16" style="enable-background:new 0 0 16 16;" xml:space="preserve">
<style type="text/css">
	.st0{fill:#757576;}
</style>
<path id="XMLID_3_" class="st0" d="M8,1c3.9,0,7,3.1,7,7s-3.1,7-7,7s-7-3.1-7-7S4.1,1,8,1 M8,0C3.6,0,0,3.6,0,8s3.6,8,8,8s8-3.6,8-8
	S12.4,0,8,0L8,0z"/>
<rect id="XMLID_4_" x="7.5" y="0.4" class="st0" width="1" height="14.9"/>
<rect id="XMLID_6_" x="0.5" y="7.4" class="st0" width="14.9" height="1"/>
<rect id="XMLID_7_" x="1.4" y="10.7" class="st0" width="13.2" height="1"/>
<rect id="XMLID_5_" x="1.4" y="4" class="st0" width="13.2" height="1"/>
<path id="XMLID_8_" class="st0" d="M8,15.9c-2.5,0-4.5-3.5-4.5-7.9c0-4.4,2-7.9,4.5-7.9s4.5,3.5,4.5,7.9C12.5,12.4,10.5,15.9,8,15.9
	z M8,1.1C6.1,1.1,4.5,4.2,4.5,8s1.6,6.9,3.5,6.9c1.9,0,3.5-3.2,3.5-6.9S9.9,1.1,8,1.1z"/>
</svg>
