<?xml version="1.0" encoding="utf-8"?>
<!-- Generator: Adobe Illustrator 19.0.0, SVG Export Plug-In . SVG Version: 6.00 Build 0)  -->
<svg version="1.1" id="图层_1" xmlns="http://www.w3.org/2000/svg" xmlns:xlink="http://www.w3.org/1999/xlink" x="0px" y="0px"
	 width="10px" height="10px" viewBox="0 0 10 10" style="enable-background:new 0 0 10 10;" xml:space="preserve">
<style type="text/css">
	.st0{fill-rule:evenodd;clip-rule:evenodd;fill:#FFFFFF;}
</style>
<g id="XMLID_4_">
	<g id="XMLID_22_">
		<path id="XMLID_23_" class="st0" d="M6.3,5l3.4-3.4c0.4-0.4,0.4-1,0-1.3c-0.4-0.4-1-0.4-1.3,0L5,3.7L1.6,0.3c-0.4-0.4-1-0.4-1.3,0
			c-0.4,0.4-0.4,1,0,1.3L3.7,5L0.3,8.4c-0.4,0.4-0.4,1,0,1.3c0.4,0.4,1,0.4,1.3,0L5,6.3l3.4,3.4c0.4,0.4,1,0.4,1.3,0
			c0.4-0.4,0.4-1,0-1.3L6.3,5z"/>
	</g>
</g>
</svg>
