<?xml version="1.0" encoding="utf-8"?>
<!-- Generator: Adobe Illustrator 19.0.0, SVG Export Plug-In . SVG Version: 6.00 Build 0)  -->
<svg version="1.1" id="图层_1" xmlns="http://www.w3.org/2000/svg" xmlns:xlink="http://www.w3.org/1999/xlink" x="0px" y="0px"
	 viewBox="0 0 135 28" style="enable-background:new 0 0 135 28;" xml:space="preserve">
<style type="text/css">
	.st0{clip-path:url(#SVGID_2_);fill:url(#SVGID_3_);}
	.st1{clip-path:url(#SVGID_5_);fill:url(#SVGID_6_);}
	.st2{clip-path:url(#SVGID_8_);fill:url(#SVGID_9_);}
	.st3{clip-path:url(#SVGID_11_);fill:url(#SVGID_12_);}
	.st4{clip-path:url(#SVGID_14_);fill:url(#SVGID_15_);}
	.st5{clip-path:url(#SVGID_17_);fill:#FFFFFF;}
	.st6{clip-path:url(#SVGID_17_);fill:#003B75;}
	.st7{clip-path:url(#SVGID_17_);fill:#DA2128;}
	.st8{clip-path:url(#SVGID_19_);fill:url(#SVGID_20_);}
	.st9{clip-path:url(#SVGID_22_);fill:url(#SVGID_23_);}
	.st10{clip-path:url(#SVGID_25_);fill:url(#SVGID_26_);}
	.st11{clip-path:url(#SVGID_28_);fill:url(#SVGID_29_);}
</style>
<g>
	<g>
		<defs>
			<polygon id="SVGID_1_" points="79.7,10.6 83.6,13.8 79.7,17.2 79.7,21.2 79.7,21.2 81.8,19.4 88.2,13.8 81.8,8.5 79.7,6.8 			"/>
		</defs>
		<clipPath id="SVGID_2_">
			<use xlink:href="#SVGID_1_"  style="overflow:visible;"/>
		</clipPath>
		
			<linearGradient id="SVGID_3_" gradientUnits="userSpaceOnUse" x1="-21.0585" y1="32.6222" x2="-20.2973" y2="32.6222" gradientTransform="matrix(-8.000000e-07 19.2332 -19.2332 -8.000000e-07 711.3766 411.9428)">
			<stop  offset="0" style="stop-color:#0080C6"/>
			<stop  offset="0.1163" style="stop-color:#0078BC"/>
			<stop  offset="1" style="stop-color:#003A74"/>
		</linearGradient>
		<rect x="79.7" y="6.8" class="st0" width="8.5" height="14.4"/>
	</g>
	<g>
		<defs>
			<path id="SVGID_4_" d="M23.1,12v4.1c0,3.3,1.4,5.3,5.6,5.3c1.4,0,2.9-0.5,3.6-1.1v0.9h2.8v-8.1h-5.6v2.6H32v2
				c-0.7,0.4-1.6,0.7-3,0.7c-2.3,0-2.6-1.1-2.6-2.6v-3.6c0-1.5,0.4-2.6,2.9-2.6c1.8,0,3.2,0.4,4.4,1.1l1.3-2.8
				c-1.7-0.9-3-1.3-5.6-1.3C24.5,6.6,23.1,8.6,23.1,12"/>
		</defs>
		<clipPath id="SVGID_5_">
			<use xlink:href="#SVGID_4_"  style="overflow:visible;"/>
		</clipPath>
		
			<linearGradient id="SVGID_6_" gradientUnits="userSpaceOnUse" x1="-21.0546" y1="31.7334" x2="-20.2934" y2="31.7334" gradientTransform="matrix(-8.000000e-07 19.399 -19.399 -8.000000e-07 644.7169 415.0546)">
			<stop  offset="0" style="stop-color:#E7F2FB"/>
			<stop  offset="0.2342" style="stop-color:#DAE6EF"/>
			<stop  offset="0.6687" style="stop-color:#B7C7D1"/>
			<stop  offset="1" style="stop-color:#98ACB6"/>
		</linearGradient>
		<rect x="23.1" y="6.6" class="st1" width="12" height="14.8"/>
	</g>
	<g>
		<defs>
			<path id="SVGID_7_" d="M43,10.3l1.6,5.4h-3.2L43,10.3z M40.9,6.8l-4.7,14.4h3.6l0.8-2.6h4.8l0.8,2.6h3.6L45,6.8H40.9z"/>
		</defs>
		<clipPath id="SVGID_8_">
			<use xlink:href="#SVGID_7_"  style="overflow:visible;"/>
		</clipPath>
		
			<linearGradient id="SVGID_9_" gradientUnits="userSpaceOnUse" x1="-21.0546" y1="31.9461" x2="-20.2934" y2="31.9461" gradientTransform="matrix(-8.000000e-07 18.859 -18.859 -8.000000e-07 645.449 403.8905)">
			<stop  offset="0" style="stop-color:#E7F2FB"/>
			<stop  offset="0.2342" style="stop-color:#DAE6EF"/>
			<stop  offset="0.6687" style="stop-color:#B7C7D1"/>
			<stop  offset="1" style="stop-color:#98ACB6"/>
		</linearGradient>
		<rect x="36.2" y="6.8" class="st2" width="13.5" height="14.4"/>
	</g>
	<g>
		<defs>
			<polygon id="SVGID_10_" points="60.8,6.8 58.4,15.1 56,6.8 50.9,6.8 50.9,21.2 54.2,21.2 54,10.4 56.9,19.8 59.9,19.8 62.8,10.4 
				62.6,21.2 66.2,21.2 66.2,6.8 			"/>
		</defs>
		<clipPath id="SVGID_11_">
			<use xlink:href="#SVGID_10_"  style="overflow:visible;"/>
		</clipPath>
		
			<linearGradient id="SVGID_12_" gradientUnits="userSpaceOnUse" x1="-21.0546" y1="32.2051" x2="-20.2934" y2="32.2051" gradientTransform="matrix(-8.000000e-07 18.859 -18.859 -8.000000e-07 665.9059 403.8905)">
			<stop  offset="0" style="stop-color:#E7F2FB"/>
			<stop  offset="0.2342" style="stop-color:#DAE6EF"/>
			<stop  offset="0.6687" style="stop-color:#B7C7D1"/>
			<stop  offset="1" style="stop-color:#98ACB6"/>
		</linearGradient>
		<rect x="50.9" y="6.8" class="st3" width="15.3" height="14.4"/>
	</g>
	<g>
		<defs>
			<polygon id="SVGID_13_" points="68,6.8 68,21.2 78.3,21.2 78.3,18.4 77.9,18.4 74.6,18.4 71.4,18.4 71.4,15.3 74.6,15.3 
				77.2,15.3 77.2,12.6 74.6,12.6 71.4,12.6 71.4,9.6 74.6,9.6 78.1,9.6 78.3,9.6 78.3,6.8 			"/>
		</defs>
		<clipPath id="SVGID_14_">
			<use xlink:href="#SVGID_13_"  style="overflow:visible;"/>
		</clipPath>
		
			<linearGradient id="SVGID_15_" gradientUnits="userSpaceOnUse" x1="-21.0546" y1="32.4486" x2="-20.2934" y2="32.4486" gradientTransform="matrix(-8.000000e-07 18.859 -18.859 -8.000000e-07 685.1325 403.8905)">
			<stop  offset="0" style="stop-color:#E7F2FB"/>
			<stop  offset="0.2342" style="stop-color:#DAE6EF"/>
			<stop  offset="0.6687" style="stop-color:#B7C7D1"/>
			<stop  offset="1" style="stop-color:#98ACB6"/>
		</linearGradient>
		<rect x="68" y="6.8" class="st4" width="10.3" height="14.4"/>
	</g>
	<g>
		<defs>
			<rect id="SVGID_16_" y="0" width="135" height="27.9"/>
		</defs>
		<clipPath id="SVGID_17_">
			<use xlink:href="#SVGID_16_"  style="overflow:visible;"/>
		</clipPath>
		<path class="st5" d="M19.7,3.2c-0.9,0.6-2.5,1.5-4.7,1C11.2,3.2,10.2,0,10.2,0S9.1,3.2,5.4,4.2c-2.2,0.5-3.8-0.3-4.7-1H0v17.3
			c0,0.4,0.1,1.3,0.8,2.2c0.9,1.1,2.4,1.8,4.4,2.1c1.6,0.2,2.8,0.8,3.7,1.6c0.6,0.6,1.2,1.7,1.2,1.7s0.6-1.1,1.2-1.7
			c0.9-0.8,2.1-1.3,3.7-1.6c2.1-0.3,3.5-1,4.4-2.1c0.7-0.9,0.8-1.7,0.8-2.2V3.2H19.7z"/>
		<path class="st6" d="M19.7,3.9c0,0-2,1.6-4.9,0.9c-3.3-0.8-4.6-3.3-4.6-3.3S8.9,3.9,5.5,4.8C2.6,5.5,0.6,3.9,0.6,3.9v16.6
			c0,0.6,0.2,3,4.7,3.6c1.8,0.3,3.1,0.8,4,1.7c0.3,0.3,0.6,0.7,0.8,1c0.2-0.3,0.5-0.6,0.8-1c0.9-0.9,2.3-1.5,4-1.7
			c4.5-0.7,4.7-3,4.7-3.6V3.9z"/>
		<path class="st5" d="M10.2,25.2c0,0,1.3-1.6,4.7-2.1c3.9-0.6,3.8-2.4,3.8-2.5v-8.7H1.7v8.7c0,0.1-0.1,1.9,3.8,2.5
			C8.9,23.6,10.2,25.2,10.2,25.2"/>
		<polygon class="st7" points="6.2,18.2 6.2,14 5.7,13.7 5.7,12.7 8.1,12.7 8.1,13.7 7.6,14 7.6,22.5 6.3,22.1 4.5,16.7 4.5,20.3 
			5.1,20.7 5.1,21.8 2.5,21.2 2.5,20.2 3.1,20 3.1,14 2.5,13.7 2.5,12.7 4.4,12.7 		"/>
		<polygon class="st7" points="10.6,22 11.1,22.6 11.1,23.7 8.6,22.7 8.6,21.8 9.1,21.6 9.1,14 8.6,13.8 8.6,12.7 13,12.7 13,14.9 
			12,14.9 11.7,14 10.6,14 10.6,16.5 11.4,16.5 11.8,16 12.4,16 12.4,18.3 11.8,18.3 11.4,17.8 10.6,17.8 		"/>
		<polygon class="st7" points="13.4,22.4 13.4,21.3 14,20.8 14,14 13.5,13.8 13.5,12.7 16,12.7 16,13.8 15.5,14 15.5,20.3 
			16.6,20.1 16.8,18.4 17.8,18.4 17.8,21.2 		"/>
		<polygon class="st5" points="2.2,10 1.4,9.5 2.3,9.5 2.6,8.6 3,9.5 3.9,9.5 3.1,10 3.4,10.9 2.6,10.4 1.9,10.9 		"/>
		<polygon class="st5" points="5.5,10 4.7,9.5 5.7,9.5 6,8.6 6.3,9.5 7.2,9.5 6.4,10 6.7,10.9 6,10.4 5.2,10.9 		"/>
		<polygon class="st5" points="2.2,7 1.4,6.5 2.3,6.5 2.6,5.6 3,6.5 3.9,6.5 3.1,7 3.4,7.9 2.6,7.4 1.9,7.9 		"/>
		<polygon class="st5" points="5.5,7 4.7,6.5 5.7,6.5 6,5.6 6.3,6.5 7.2,6.5 6.4,7 6.7,7.9 6,7.4 5.2,7.9 		"/>
		<polygon class="st5" points="18.4,10.9 17.7,10.4 16.9,10.9 17.2,10 16.4,9.5 17.4,9.5 17.7,8.6 18,9.5 18.9,9.5 18.2,10 		"/>
		<polygon class="st5" points="15.1,10.9 14.4,10.4 13.6,10.9 13.9,10 13.1,9.5 14.1,9.5 14.4,8.6 14.7,9.5 15.6,9.5 14.9,10 		"/>
		<polygon class="st5" points="18.4,7.9 17.7,7.4 16.9,7.9 17.2,7 16.4,6.5 17.4,6.5 17.7,5.6 18,6.5 18.9,6.5 18.2,7 		"/>
		<polygon class="st5" points="15.1,7.9 14.4,7.4 13.6,7.9 13.9,7 13.1,6.5 14.1,6.5 14.4,5.6 14.7,6.5 15.6,6.5 14.9,7 		"/>
		<path class="st5" d="M12.3,4.6c0,0-0.4,0.2-0.9,0.7c0.1,0.1,0.3,0.2,0.3,0.2c-0.1,0.1-0.2,0.2-0.2,0.2c-0.4-0.3-0.7-0.4-1-0.5
			c0.1-0.1,0.2-0.1,0.3-0.2c0.2,0,0.3,0.1,0.3,0.1c0.6-0.5,1.2-0.7,1.2-0.7s-0.1,0-0.2,0c-2.4,0-4.7,1.9-4.3,5
			c0,0.3,0.2,0.9,0.3,1.2C8.1,10.2,8.2,9,8.8,7.8C8.6,7.7,8.5,7.7,8.5,7.7c0.1-0.1,0.1-0.3,0.1-0.3C9,7.5,9.4,7.7,9.7,7.9
			C9.7,8.1,9.6,8.2,9.6,8.2C9.5,8.1,9.3,8,9.2,8c-0.7,1.1-1,2.2-1.1,2.8c0,0,0.1,0.1,0.1,0c2.7-0.3,3.9-1.7,4.3-3.2
			c0.3-1,0.2-2-0.2-2.8C12.4,4.7,12.3,4.6,12.3,4.6 M10,7.6C9.6,7.3,9.2,7.1,8.8,7.1c0,0,0.1-0.2,0.2-0.3c0.5,0.1,0.9,0.3,1.2,0.6
			C10.1,7.4,10,7.5,10,7.6 M10.4,7c-0.3-0.3-0.7-0.5-1.2-0.6c0.1-0.1,0.1-0.2,0.2-0.3c0.3,0.1,0.8,0.2,1.2,0.6
			C10.5,6.8,10.5,6.9,10.4,7 M10.9,6.4c-0.3-0.3-0.7-0.5-1.1-0.5c0.1-0.1,0.2-0.2,0.3-0.2c0.5,0.1,0.8,0.3,1.1,0.5
			C11.1,6.2,11,6.3,10.9,6.4"/>
	</g>
	<g>
		<defs>
			<path id="SVGID_18_" d="M90.1,9.8h2.2c1.4,0,1.8,0.6,1.8,2.1c0,1.4-0.4,2.1-1.8,2.1h-2.2V9.8z M86.8,7v4.3l3.2,2.6l-3.2,2.8v4.6
				h3.3v-4.6h2.7c3.5,0,4.8-1.8,4.8-4.8v0c0-3.1-1.4-4.8-4.8-4.8H86.8z"/>
		</defs>
		<clipPath id="SVGID_19_">
			<use xlink:href="#SVGID_18_"  style="overflow:visible;"/>
		</clipPath>
		
			<linearGradient id="SVGID_20_" gradientUnits="userSpaceOnUse" x1="-21.0567" y1="32.7672" x2="-20.2956" y2="32.7672" gradientTransform="matrix(-8.000000e-07 18.758 -18.758 -8.000000e-07 706.8557 401.9712)">
			<stop  offset="0" style="stop-color:#E7F2FB"/>
			<stop  offset="0.2342" style="stop-color:#DAE6EF"/>
			<stop  offset="0.6687" style="stop-color:#B7C7D1"/>
			<stop  offset="1" style="stop-color:#98ACB6"/>
		</linearGradient>
		<rect x="86.8" y="7" class="st8" width="10.8" height="14.3"/>
	</g>
	<g>
		<defs>
			<path id="SVGID_21_" d="M102.9,10.5l1.6,5.4h-3.1L102.9,10.5z M100.8,7l-4.7,14.3h3.6l0.8-2.6h4.8l0.8,2.6h3.6L104.9,7H100.8z"/>
		</defs>
		<clipPath id="SVGID_22_">
			<use xlink:href="#SVGID_21_"  style="overflow:visible;"/>
		</clipPath>
		
			<linearGradient id="SVGID_23_" gradientUnits="userSpaceOnUse" x1="-21.0567" y1="32.9457" x2="-20.2956" y2="32.9457" gradientTransform="matrix(-8.000000e-07 18.758 -18.758 -8.000000e-07 720.8802 401.9712)">
			<stop  offset="0" style="stop-color:#E7F2FB"/>
			<stop  offset="0.2342" style="stop-color:#DAE6EF"/>
			<stop  offset="0.6687" style="stop-color:#B7C7D1"/>
			<stop  offset="1" style="stop-color:#98ACB6"/>
		</linearGradient>
		<rect x="96.2" y="7" class="st9" width="13.5" height="14.3"/>
	</g>
	<g>
		<defs>
			<path id="SVGID_24_" d="M110.7,11.1c0,2.8,1.2,3.7,4.9,4.3c2.3,0.4,3.1,0.5,3.1,1.7c0,1.2-1,1.3-2.8,1.3c-1.8,0-3.4-0.5-4.6-1.2
				L110,20c1.7,1,3.4,1.4,5.8,1.4c3.7,0,6.2-1,6.2-4.5c0-3.3-2-3.9-5.6-4.4c-2.1-0.3-2.3-0.6-2.3-1.5c0-0.9,0.8-1.2,2.3-1.2
				c1.6,0,3,0.4,4.2,1.1l1.2-2.8c-1.7-0.9-3.2-1.3-5.4-1.3C112.9,6.8,110.7,8.1,110.7,11.1"/>
		</defs>
		<clipPath id="SVGID_25_">
			<use xlink:href="#SVGID_24_"  style="overflow:visible;"/>
		</clipPath>
		
			<linearGradient id="SVGID_26_" gradientUnits="userSpaceOnUse" x1="-21.0567" y1="33.1429" x2="-20.2955" y2="33.1429" gradientTransform="matrix(-8.000000e-07 19.293 -19.293 -8.000000e-07 755.4492 413.033)">
			<stop  offset="0" style="stop-color:#E7F2FB"/>
			<stop  offset="0.2342" style="stop-color:#DAE6EF"/>
			<stop  offset="0.6687" style="stop-color:#B7C7D1"/>
			<stop  offset="1" style="stop-color:#98ACB6"/>
		</linearGradient>
		<rect x="110" y="6.8" class="st10" width="12" height="14.7"/>
	</g>
	<g>
		<defs>
			<path id="SVGID_27_" d="M123.6,11.1c0,2.8,1.2,3.7,4.9,4.3c2.3,0.4,3.1,0.5,3.1,1.7c0,1.2-1,1.3-2.8,1.3c-1.8,0-3.4-0.5-4.6-1.2
				L123,20c1.7,1,3.4,1.4,5.8,1.4c3.7,0,6.2-1,6.2-4.5c0-3.3-2-3.9-5.6-4.4c-2.1-0.3-2.3-0.6-2.3-1.5c0-0.9,0.8-1.2,2.3-1.2
				c1.6,0,3,0.4,4.2,1.1l1.2-2.8c-1.7-0.9-3.2-1.3-5.4-1.3C125.9,6.8,123.6,8.1,123.6,11.1"/>
		</defs>
		<clipPath id="SVGID_28_">
			<use xlink:href="#SVGID_27_"  style="overflow:visible;"/>
		</clipPath>
		
			<linearGradient id="SVGID_29_" gradientUnits="userSpaceOnUse" x1="-21.0567" y1="33.3537" x2="-20.2955" y2="33.3537" gradientTransform="matrix(-8.000000e-07 19.293 -19.293 -8.000000e-07 772.4753 413.033)">
			<stop  offset="0" style="stop-color:#E7F2FB"/>
			<stop  offset="0.2342" style="stop-color:#DAE6EF"/>
			<stop  offset="0.6687" style="stop-color:#B7C7D1"/>
			<stop  offset="1" style="stop-color:#98ACB6"/>
		</linearGradient>
		<rect x="123" y="6.8" class="st11" width="12" height="14.7"/>
	</g>
</g>
</svg>
