<?xml version="1.0" encoding="utf-8"?>
<!-- Generator: Adobe Illustrator 19.0.0, SVG Export Plug-In . SVG Version: 6.00 Build 0)  -->
<svg version="1.1" id="图层_1" xmlns="http://www.w3.org/2000/svg" xmlns:xlink="http://www.w3.org/1999/xlink" x="0px" y="0px"
	 viewBox="0 0 32 32" style="enable-background:new 0 0 32 32;" xml:space="preserve">
<style type="text/css">
	.st0{clip-path:url(#SVGID_2_);}
	.st1{clip-path:url(#SVGID_4_);fill:#EEEEEE;}
</style>
<g>
	<defs>
		<path id="SVGID_1_" d="M25.6,26.2c-0.5-0.9-1.1-1.7-1.8-2.5c-0.9-0.9-1.9-1.6-3-2.1c-0.4-0.4-0.6-0.9-0.5-1.5
			c0.2-0.8,0.8-0.9,1.3-2.3c0.4-1.4,0.6-2.8,0.5-4.2c0,0-0.1-3.1-2.3-4.6c-1.1-0.7-2.5-1.1-3.8-1.1c-1.3,0-2.6,0.4-3.7,1.1
			c-2.2,1.5-2.3,4.6-2.3,4.6c-0.2,1.4,0,2.9,0.5,4.2c0.5,1.4,1.1,1.5,1.3,2.3c0.1,0.6-0.1,1.1-0.5,1.5c-1.1,0.5-2.1,1.2-3,2.1
			c-0.7,0.8-1.3,1.6-1.8,2.5C3.6,23.6,2,19.9,2,16C2,8.3,8.3,2,16,2s14,6.3,14,14C30,19.9,28.4,23.5,25.6,26.2z M16,0
			C7.2,0,0,7.2,0,16s7.2,16,16,16s16-7.2,16-16c0-4.2-1.7-8.3-4.7-11.3S20.2,0,16,0z"/>
	</defs>
	<clipPath id="SVGID_2_">
		<use xlink:href="#SVGID_1_"  style="overflow:visible;"/>
	</clipPath>
	<g class="st0">
		<defs>
			<rect id="SVGID_3_" width="32" height="32"/>
		</defs>
		<clipPath id="SVGID_4_">
			<use xlink:href="#SVGID_3_"  style="overflow:visible;"/>
		</clipPath>
		<rect x="-5" y="-5" class="st1" width="42" height="42"/>
	</g>
</g>
</svg>
